<mxfile host="Electron" modified="2023-04-22T20:52:17.989Z" agent="Mozilla/5.0 (Windows NT 10.0; Win64; x64) AppleWebKit/537.36 (KHTML, like Gecko) draw.io/21.1.2 Chrome/106.0.5249.199 Electron/21.4.3 Safari/537.36" etag="oRYiHr5thkeDnaSnroZY" version="21.1.2" type="device">
  <diagram name="Página-1" id="6Aa5rteQ9fUHa6YV4pdz">
    <mxGraphModel dx="2208" dy="819" grid="1" gridSize="10" guides="1" tooltips="1" connect="1" arrows="1" fold="1" page="1" pageScale="1" pageWidth="827" pageHeight="1169" math="0" shadow="0">
      <root>
        <mxCell id="0" />
        <mxCell id="1" parent="0" />
        <mxCell id="rPZLx46_eU9QWr_FCqPZ-1" value="C" style="rounded=0;whiteSpace=wrap;html=1;" vertex="1" parent="1">
          <mxGeometry x="90" y="170" width="100" height="60" as="geometry" />
        </mxCell>
        <mxCell id="rPZLx46_eU9QWr_FCqPZ-21" style="edgeStyle=orthogonalEdgeStyle;rounded=0;orthogonalLoop=1;jettySize=auto;html=1;exitX=0.5;exitY=1;exitDx=0;exitDy=0;entryX=0.5;entryY=1;entryDx=0;entryDy=0;" edge="1" parent="1" source="rPZLx46_eU9QWr_FCqPZ-2" target="rPZLx46_eU9QWr_FCqPZ-7">
          <mxGeometry relative="1" as="geometry">
            <Array as="points">
              <mxPoint x="240" y="570" />
              <mxPoint x="740" y="570" />
            </Array>
          </mxGeometry>
        </mxCell>
        <mxCell id="rPZLx46_eU9QWr_FCqPZ-22" style="edgeStyle=orthogonalEdgeStyle;rounded=0;orthogonalLoop=1;jettySize=auto;html=1;exitX=0.5;exitY=1;exitDx=0;exitDy=0;entryX=0.5;entryY=1;entryDx=0;entryDy=0;" edge="1" parent="1" source="rPZLx46_eU9QWr_FCqPZ-2" target="rPZLx46_eU9QWr_FCqPZ-11">
          <mxGeometry relative="1" as="geometry">
            <Array as="points">
              <mxPoint x="240" y="570" />
              <mxPoint x="840" y="570" />
            </Array>
          </mxGeometry>
        </mxCell>
        <mxCell id="rPZLx46_eU9QWr_FCqPZ-2" value="D" style="rounded=0;whiteSpace=wrap;html=1;" vertex="1" parent="1">
          <mxGeometry x="190" y="170" width="100" height="60" as="geometry" />
        </mxCell>
        <mxCell id="rPZLx46_eU9QWr_FCqPZ-3" value="H" style="rounded=0;whiteSpace=wrap;html=1;" vertex="1" parent="1">
          <mxGeometry x="590" y="170" width="100" height="60" as="geometry" />
        </mxCell>
        <mxCell id="rPZLx46_eU9QWr_FCqPZ-4" value="E" style="rounded=0;whiteSpace=wrap;html=1;" vertex="1" parent="1">
          <mxGeometry x="290" y="170" width="100" height="60" as="geometry" />
        </mxCell>
        <mxCell id="rPZLx46_eU9QWr_FCqPZ-5" value="G" style="rounded=0;whiteSpace=wrap;html=1;" vertex="1" parent="1">
          <mxGeometry x="490" y="170" width="100" height="60" as="geometry" />
        </mxCell>
        <mxCell id="rPZLx46_eU9QWr_FCqPZ-14" style="edgeStyle=orthogonalEdgeStyle;rounded=0;orthogonalLoop=1;jettySize=auto;html=1;exitX=0.5;exitY=1;exitDx=0;exitDy=0;" edge="1" parent="1" source="rPZLx46_eU9QWr_FCqPZ-6">
          <mxGeometry relative="1" as="geometry">
            <mxPoint x="140" y="230" as="targetPoint" />
            <Array as="points">
              <mxPoint x="40" y="280" />
              <mxPoint x="140" y="280" />
            </Array>
          </mxGeometry>
        </mxCell>
        <mxCell id="rPZLx46_eU9QWr_FCqPZ-17" style="edgeStyle=orthogonalEdgeStyle;rounded=0;orthogonalLoop=1;jettySize=auto;html=1;exitX=0.5;exitY=1;exitDx=0;exitDy=0;entryX=0.5;entryY=1;entryDx=0;entryDy=0;" edge="1" parent="1" source="rPZLx46_eU9QWr_FCqPZ-6" target="rPZLx46_eU9QWr_FCqPZ-8">
          <mxGeometry relative="1" as="geometry">
            <Array as="points">
              <mxPoint x="40" y="490" />
              <mxPoint x="440" y="490" />
            </Array>
          </mxGeometry>
        </mxCell>
        <mxCell id="rPZLx46_eU9QWr_FCqPZ-6" value="B" style="rounded=0;whiteSpace=wrap;html=1;fontStyle=4" vertex="1" parent="1">
          <mxGeometry x="-10" y="170" width="100" height="60" as="geometry" />
        </mxCell>
        <mxCell id="rPZLx46_eU9QWr_FCqPZ-7" value="I" style="rounded=0;whiteSpace=wrap;html=1;" vertex="1" parent="1">
          <mxGeometry x="690" y="170" width="100" height="60" as="geometry" />
        </mxCell>
        <mxCell id="rPZLx46_eU9QWr_FCqPZ-18" style="edgeStyle=orthogonalEdgeStyle;rounded=0;orthogonalLoop=1;jettySize=auto;html=1;exitX=0.5;exitY=1;exitDx=0;exitDy=0;entryX=0.598;entryY=1.043;entryDx=0;entryDy=0;entryPerimeter=0;" edge="1" parent="1" source="rPZLx46_eU9QWr_FCqPZ-8" target="rPZLx46_eU9QWr_FCqPZ-5">
          <mxGeometry relative="1" as="geometry">
            <Array as="points">
              <mxPoint x="440" y="520" />
              <mxPoint x="550" y="520" />
            </Array>
          </mxGeometry>
        </mxCell>
        <mxCell id="rPZLx46_eU9QWr_FCqPZ-19" style="edgeStyle=orthogonalEdgeStyle;rounded=0;orthogonalLoop=1;jettySize=auto;html=1;exitX=0.5;exitY=1;exitDx=0;exitDy=0;entryX=0.5;entryY=1;entryDx=0;entryDy=0;" edge="1" parent="1" source="rPZLx46_eU9QWr_FCqPZ-8" target="rPZLx46_eU9QWr_FCqPZ-3">
          <mxGeometry relative="1" as="geometry">
            <Array as="points">
              <mxPoint x="440" y="520" />
              <mxPoint x="640" y="520" />
            </Array>
          </mxGeometry>
        </mxCell>
        <mxCell id="rPZLx46_eU9QWr_FCqPZ-8" value="F" style="rounded=0;whiteSpace=wrap;html=1;" vertex="1" parent="1">
          <mxGeometry x="390" y="170" width="100" height="60" as="geometry" />
        </mxCell>
        <mxCell id="rPZLx46_eU9QWr_FCqPZ-12" style="edgeStyle=orthogonalEdgeStyle;rounded=0;orthogonalLoop=1;jettySize=auto;html=1;exitX=0.5;exitY=1;exitDx=0;exitDy=0;entryX=0.5;entryY=1;entryDx=0;entryDy=0;" edge="1" parent="1" source="rPZLx46_eU9QWr_FCqPZ-10" target="rPZLx46_eU9QWr_FCqPZ-1">
          <mxGeometry relative="1" as="geometry">
            <Array as="points">
              <mxPoint x="-60" y="280" />
              <mxPoint x="140" y="280" />
            </Array>
          </mxGeometry>
        </mxCell>
        <mxCell id="rPZLx46_eU9QWr_FCqPZ-15" style="edgeStyle=orthogonalEdgeStyle;rounded=0;orthogonalLoop=1;jettySize=auto;html=1;exitX=0.5;exitY=1;exitDx=0;exitDy=0;entryX=0.574;entryY=1.07;entryDx=0;entryDy=0;entryPerimeter=0;" edge="1" parent="1" source="rPZLx46_eU9QWr_FCqPZ-10" target="rPZLx46_eU9QWr_FCqPZ-2">
          <mxGeometry relative="1" as="geometry">
            <Array as="points">
              <mxPoint x="-60" y="410" />
              <mxPoint x="247" y="410" />
            </Array>
          </mxGeometry>
        </mxCell>
        <mxCell id="rPZLx46_eU9QWr_FCqPZ-16" style="edgeStyle=orthogonalEdgeStyle;rounded=0;orthogonalLoop=1;jettySize=auto;html=1;exitX=0.5;exitY=1;exitDx=0;exitDy=0;entryX=0.5;entryY=1;entryDx=0;entryDy=0;" edge="1" parent="1" source="rPZLx46_eU9QWr_FCqPZ-10" target="rPZLx46_eU9QWr_FCqPZ-4">
          <mxGeometry relative="1" as="geometry">
            <Array as="points">
              <mxPoint x="-60" y="410" />
              <mxPoint x="340" y="410" />
            </Array>
          </mxGeometry>
        </mxCell>
        <mxCell id="rPZLx46_eU9QWr_FCqPZ-10" value="A" style="rounded=0;whiteSpace=wrap;html=1;fontStyle=4" vertex="1" parent="1">
          <mxGeometry x="-110" y="170" width="100" height="60" as="geometry" />
        </mxCell>
        <mxCell id="rPZLx46_eU9QWr_FCqPZ-11" value="J" style="rounded=0;whiteSpace=wrap;html=1;" vertex="1" parent="1">
          <mxGeometry x="790" y="170" width="100" height="60" as="geometry" />
        </mxCell>
        <mxCell id="rPZLx46_eU9QWr_FCqPZ-23" value="Representação visual das relações&lt;br&gt;" style="text;html=1;strokeColor=none;fillColor=none;align=center;verticalAlign=middle;whiteSpace=wrap;rounded=0;" vertex="1" parent="1">
          <mxGeometry x="-100" y="120" width="60" height="30" as="geometry" />
        </mxCell>
        <mxCell id="rPZLx46_eU9QWr_FCqPZ-24" value="FN2" style="text;html=1;strokeColor=none;fillColor=none;align=center;verticalAlign=middle;whiteSpace=wrap;rounded=0;fontSize=16;fontStyle=1" vertex="1" parent="1">
          <mxGeometry x="-140" y="690" width="90" height="80" as="geometry" />
        </mxCell>
        <mxCell id="rPZLx46_eU9QWr_FCqPZ-25" value="C" style="rounded=0;whiteSpace=wrap;html=1;" vertex="1" parent="1">
          <mxGeometry x="90" y="780" width="100" height="60" as="geometry" />
        </mxCell>
        <mxCell id="rPZLx46_eU9QWr_FCqPZ-30" style="edgeStyle=orthogonalEdgeStyle;rounded=0;orthogonalLoop=1;jettySize=auto;html=1;exitX=0.5;exitY=1;exitDx=0;exitDy=0;entryX=0.5;entryY=1;entryDx=0;entryDy=0;" edge="1" parent="1" source="rPZLx46_eU9QWr_FCqPZ-26" target="rPZLx46_eU9QWr_FCqPZ-25">
          <mxGeometry relative="1" as="geometry">
            <Array as="points">
              <mxPoint x="40" y="890" />
              <mxPoint x="140" y="890" />
            </Array>
          </mxGeometry>
        </mxCell>
        <mxCell id="rPZLx46_eU9QWr_FCqPZ-26" value="B" style="rounded=0;whiteSpace=wrap;html=1;fontStyle=4" vertex="1" parent="1">
          <mxGeometry x="-10" y="780" width="100" height="60" as="geometry" />
        </mxCell>
        <mxCell id="rPZLx46_eU9QWr_FCqPZ-29" style="edgeStyle=orthogonalEdgeStyle;rounded=0;orthogonalLoop=1;jettySize=auto;html=1;exitX=0.5;exitY=1;exitDx=0;exitDy=0;entryX=0.5;entryY=1;entryDx=0;entryDy=0;" edge="1" parent="1" source="rPZLx46_eU9QWr_FCqPZ-27" target="rPZLx46_eU9QWr_FCqPZ-25">
          <mxGeometry relative="1" as="geometry">
            <Array as="points">
              <mxPoint x="-60" y="890" />
              <mxPoint x="140" y="890" />
            </Array>
          </mxGeometry>
        </mxCell>
        <mxCell id="rPZLx46_eU9QWr_FCqPZ-27" value="A" style="rounded=0;whiteSpace=wrap;html=1;fontStyle=4" vertex="1" parent="1">
          <mxGeometry x="-110" y="780" width="100" height="60" as="geometry" />
        </mxCell>
        <mxCell id="rPZLx46_eU9QWr_FCqPZ-36" style="edgeStyle=orthogonalEdgeStyle;rounded=0;orthogonalLoop=1;jettySize=auto;html=1;exitX=0.5;exitY=1;exitDx=0;exitDy=0;entryX=0.5;entryY=1;entryDx=0;entryDy=0;" edge="1" parent="1" source="rPZLx46_eU9QWr_FCqPZ-31" target="rPZLx46_eU9QWr_FCqPZ-32">
          <mxGeometry relative="1" as="geometry" />
        </mxCell>
        <mxCell id="rPZLx46_eU9QWr_FCqPZ-37" style="edgeStyle=orthogonalEdgeStyle;rounded=0;orthogonalLoop=1;jettySize=auto;html=1;exitX=0.5;exitY=1;exitDx=0;exitDy=0;entryX=0.5;entryY=1;entryDx=0;entryDy=0;" edge="1" parent="1" source="rPZLx46_eU9QWr_FCqPZ-31" target="rPZLx46_eU9QWr_FCqPZ-33">
          <mxGeometry relative="1" as="geometry" />
        </mxCell>
        <mxCell id="rPZLx46_eU9QWr_FCqPZ-31" value="A" style="rounded=0;whiteSpace=wrap;html=1;fontStyle=4" vertex="1" parent="1">
          <mxGeometry x="370" y="780" width="100" height="60" as="geometry" />
        </mxCell>
        <mxCell id="rPZLx46_eU9QWr_FCqPZ-38" style="edgeStyle=orthogonalEdgeStyle;rounded=0;orthogonalLoop=1;jettySize=auto;html=1;exitX=0.5;exitY=1;exitDx=0;exitDy=0;entryX=0.5;entryY=1;entryDx=0;entryDy=0;" edge="1" parent="1" source="rPZLx46_eU9QWr_FCqPZ-32" target="rPZLx46_eU9QWr_FCqPZ-34">
          <mxGeometry relative="1" as="geometry">
            <Array as="points">
              <mxPoint x="510" y="840" />
              <mxPoint x="510" y="900" />
              <mxPoint x="720" y="900" />
            </Array>
          </mxGeometry>
        </mxCell>
        <mxCell id="rPZLx46_eU9QWr_FCqPZ-39" style="edgeStyle=orthogonalEdgeStyle;rounded=0;orthogonalLoop=1;jettySize=auto;html=1;exitX=0.5;exitY=1;exitDx=0;exitDy=0;entryX=0.5;entryY=1;entryDx=0;entryDy=0;" edge="1" parent="1" source="rPZLx46_eU9QWr_FCqPZ-32" target="rPZLx46_eU9QWr_FCqPZ-35">
          <mxGeometry relative="1" as="geometry">
            <Array as="points">
              <mxPoint x="510" y="840" />
              <mxPoint x="510" y="900" />
              <mxPoint x="820" y="900" />
            </Array>
          </mxGeometry>
        </mxCell>
        <mxCell id="rPZLx46_eU9QWr_FCqPZ-32" value="D" style="rounded=0;whiteSpace=wrap;html=1;" vertex="1" parent="1">
          <mxGeometry x="470" y="780" width="100" height="60" as="geometry" />
        </mxCell>
        <mxCell id="rPZLx46_eU9QWr_FCqPZ-33" value="E" style="rounded=0;whiteSpace=wrap;html=1;" vertex="1" parent="1">
          <mxGeometry x="570" y="780" width="100" height="60" as="geometry" />
        </mxCell>
        <mxCell id="rPZLx46_eU9QWr_FCqPZ-34" value="I" style="rounded=0;whiteSpace=wrap;html=1;" vertex="1" parent="1">
          <mxGeometry x="670" y="780" width="100" height="60" as="geometry" />
        </mxCell>
        <mxCell id="rPZLx46_eU9QWr_FCqPZ-35" value="J" style="rounded=0;whiteSpace=wrap;html=1;" vertex="1" parent="1">
          <mxGeometry x="770" y="780" width="100" height="60" as="geometry" />
        </mxCell>
        <mxCell id="rPZLx46_eU9QWr_FCqPZ-44" style="edgeStyle=orthogonalEdgeStyle;rounded=0;orthogonalLoop=1;jettySize=auto;html=1;exitX=0.5;exitY=1;exitDx=0;exitDy=0;entryX=0.5;entryY=1;entryDx=0;entryDy=0;" edge="1" parent="1" source="rPZLx46_eU9QWr_FCqPZ-40" target="rPZLx46_eU9QWr_FCqPZ-41">
          <mxGeometry relative="1" as="geometry" />
        </mxCell>
        <mxCell id="rPZLx46_eU9QWr_FCqPZ-40" value="B" style="rounded=0;whiteSpace=wrap;html=1;fontStyle=4" vertex="1" parent="1">
          <mxGeometry x="-120" y="1000" width="100" height="60" as="geometry" />
        </mxCell>
        <mxCell id="rPZLx46_eU9QWr_FCqPZ-45" style="edgeStyle=orthogonalEdgeStyle;rounded=0;orthogonalLoop=1;jettySize=auto;html=1;exitX=0.25;exitY=1;exitDx=0;exitDy=0;entryX=0.5;entryY=1;entryDx=0;entryDy=0;" edge="1" parent="1" source="rPZLx46_eU9QWr_FCqPZ-41" target="rPZLx46_eU9QWr_FCqPZ-43">
          <mxGeometry relative="1" as="geometry">
            <Array as="points">
              <mxPoint x="5" y="1140" />
              <mxPoint x="130" y="1140" />
            </Array>
          </mxGeometry>
        </mxCell>
        <mxCell id="rPZLx46_eU9QWr_FCqPZ-46" style="edgeStyle=orthogonalEdgeStyle;rounded=0;orthogonalLoop=1;jettySize=auto;html=1;exitX=0.25;exitY=1;exitDx=0;exitDy=0;entryX=0.5;entryY=1;entryDx=0;entryDy=0;" edge="1" parent="1" source="rPZLx46_eU9QWr_FCqPZ-41" target="rPZLx46_eU9QWr_FCqPZ-42">
          <mxGeometry relative="1" as="geometry">
            <Array as="points">
              <mxPoint x="5" y="1140" />
              <mxPoint x="230" y="1140" />
            </Array>
          </mxGeometry>
        </mxCell>
        <mxCell id="rPZLx46_eU9QWr_FCqPZ-41" value="F" style="rounded=0;whiteSpace=wrap;html=1;" vertex="1" parent="1">
          <mxGeometry x="-20" y="1000" width="100" height="60" as="geometry" />
        </mxCell>
        <mxCell id="rPZLx46_eU9QWr_FCqPZ-42" value="H" style="rounded=0;whiteSpace=wrap;html=1;" vertex="1" parent="1">
          <mxGeometry x="180" y="1000" width="100" height="60" as="geometry" />
        </mxCell>
        <mxCell id="rPZLx46_eU9QWr_FCqPZ-43" value="G" style="rounded=0;whiteSpace=wrap;html=1;" vertex="1" parent="1">
          <mxGeometry x="80" y="1000" width="100" height="60" as="geometry" />
        </mxCell>
        <mxCell id="rPZLx46_eU9QWr_FCqPZ-47" value="FD1" style="text;html=1;strokeColor=none;fillColor=none;align=center;verticalAlign=middle;whiteSpace=wrap;rounded=0;fontSize=16;fontStyle=1" vertex="1" parent="1">
          <mxGeometry x="-150" y="830" width="90" height="80" as="geometry" />
        </mxCell>
        <mxCell id="rPZLx46_eU9QWr_FCqPZ-48" value="FD2" style="text;html=1;strokeColor=none;fillColor=none;align=center;verticalAlign=middle;whiteSpace=wrap;rounded=0;fontSize=16;fontStyle=1" vertex="1" parent="1">
          <mxGeometry x="350" y="820" width="90" height="80" as="geometry" />
        </mxCell>
        <mxCell id="rPZLx46_eU9QWr_FCqPZ-49" value="FD3" style="text;html=1;strokeColor=none;fillColor=none;align=center;verticalAlign=middle;whiteSpace=wrap;rounded=0;fontSize=16;fontStyle=1" vertex="1" parent="1">
          <mxGeometry x="-160" y="1040" width="90" height="80" as="geometry" />
        </mxCell>
        <mxCell id="rPZLx46_eU9QWr_FCqPZ-50" value="FD4" style="text;html=1;strokeColor=none;fillColor=none;align=center;verticalAlign=middle;whiteSpace=wrap;rounded=0;fontSize=16;fontStyle=1" vertex="1" parent="1">
          <mxGeometry x="-70" y="1080" width="90" height="80" as="geometry" />
        </mxCell>
        <mxCell id="rPZLx46_eU9QWr_FCqPZ-51" value="FD5" style="text;html=1;strokeColor=none;fillColor=none;align=center;verticalAlign=middle;whiteSpace=wrap;rounded=0;fontSize=16;fontStyle=1" vertex="1" parent="1">
          <mxGeometry x="480" y="880" width="90" height="80" as="geometry" />
        </mxCell>
        <mxCell id="rPZLx46_eU9QWr_FCqPZ-52" value="FN3" style="text;html=1;strokeColor=none;fillColor=none;align=center;verticalAlign=middle;whiteSpace=wrap;rounded=0;fontSize=16;fontStyle=1" vertex="1" parent="1">
          <mxGeometry x="-140" y="1250" width="90" height="80" as="geometry" />
        </mxCell>
        <mxCell id="rPZLx46_eU9QWr_FCqPZ-53" value="C" style="rounded=0;whiteSpace=wrap;html=1;" vertex="1" parent="1">
          <mxGeometry x="90" y="1340" width="100" height="60" as="geometry" />
        </mxCell>
        <mxCell id="rPZLx46_eU9QWr_FCqPZ-54" style="edgeStyle=orthogonalEdgeStyle;rounded=0;orthogonalLoop=1;jettySize=auto;html=1;exitX=0.5;exitY=1;exitDx=0;exitDy=0;entryX=0.5;entryY=1;entryDx=0;entryDy=0;" edge="1" parent="1" source="rPZLx46_eU9QWr_FCqPZ-55" target="rPZLx46_eU9QWr_FCqPZ-53">
          <mxGeometry relative="1" as="geometry">
            <Array as="points">
              <mxPoint x="40" y="1450" />
              <mxPoint x="140" y="1450" />
            </Array>
          </mxGeometry>
        </mxCell>
        <mxCell id="rPZLx46_eU9QWr_FCqPZ-55" value="B" style="rounded=0;whiteSpace=wrap;html=1;fontStyle=4" vertex="1" parent="1">
          <mxGeometry x="-10" y="1340" width="100" height="60" as="geometry" />
        </mxCell>
        <mxCell id="rPZLx46_eU9QWr_FCqPZ-56" style="edgeStyle=orthogonalEdgeStyle;rounded=0;orthogonalLoop=1;jettySize=auto;html=1;exitX=0.5;exitY=1;exitDx=0;exitDy=0;entryX=0.5;entryY=1;entryDx=0;entryDy=0;" edge="1" parent="1" source="rPZLx46_eU9QWr_FCqPZ-57" target="rPZLx46_eU9QWr_FCqPZ-53">
          <mxGeometry relative="1" as="geometry">
            <Array as="points">
              <mxPoint x="-60" y="1450" />
              <mxPoint x="140" y="1450" />
            </Array>
          </mxGeometry>
        </mxCell>
        <mxCell id="rPZLx46_eU9QWr_FCqPZ-57" value="A" style="rounded=0;whiteSpace=wrap;html=1;fontStyle=4" vertex="1" parent="1">
          <mxGeometry x="-110" y="1340" width="100" height="60" as="geometry" />
        </mxCell>
        <mxCell id="rPZLx46_eU9QWr_FCqPZ-58" style="edgeStyle=orthogonalEdgeStyle;rounded=0;orthogonalLoop=1;jettySize=auto;html=1;exitX=0.5;exitY=1;exitDx=0;exitDy=0;entryX=0.5;entryY=1;entryDx=0;entryDy=0;" edge="1" parent="1" source="rPZLx46_eU9QWr_FCqPZ-60" target="rPZLx46_eU9QWr_FCqPZ-63">
          <mxGeometry relative="1" as="geometry" />
        </mxCell>
        <mxCell id="rPZLx46_eU9QWr_FCqPZ-59" style="edgeStyle=orthogonalEdgeStyle;rounded=0;orthogonalLoop=1;jettySize=auto;html=1;exitX=0.5;exitY=1;exitDx=0;exitDy=0;entryX=0.5;entryY=1;entryDx=0;entryDy=0;" edge="1" parent="1" source="rPZLx46_eU9QWr_FCqPZ-60" target="rPZLx46_eU9QWr_FCqPZ-64">
          <mxGeometry relative="1" as="geometry" />
        </mxCell>
        <mxCell id="rPZLx46_eU9QWr_FCqPZ-60" value="A" style="rounded=0;whiteSpace=wrap;html=1;fontStyle=4" vertex="1" parent="1">
          <mxGeometry x="370" y="1340" width="100" height="60" as="geometry" />
        </mxCell>
        <mxCell id="rPZLx46_eU9QWr_FCqPZ-63" value="D" style="rounded=0;whiteSpace=wrap;html=1;" vertex="1" parent="1">
          <mxGeometry x="470" y="1340" width="100" height="60" as="geometry" />
        </mxCell>
        <mxCell id="rPZLx46_eU9QWr_FCqPZ-64" value="E" style="rounded=0;whiteSpace=wrap;html=1;" vertex="1" parent="1">
          <mxGeometry x="570" y="1340" width="100" height="60" as="geometry" />
        </mxCell>
        <mxCell id="rPZLx46_eU9QWr_FCqPZ-67" style="edgeStyle=orthogonalEdgeStyle;rounded=0;orthogonalLoop=1;jettySize=auto;html=1;exitX=0.5;exitY=1;exitDx=0;exitDy=0;entryX=0.5;entryY=1;entryDx=0;entryDy=0;" edge="1" parent="1" source="rPZLx46_eU9QWr_FCqPZ-68" target="rPZLx46_eU9QWr_FCqPZ-71">
          <mxGeometry relative="1" as="geometry" />
        </mxCell>
        <mxCell id="rPZLx46_eU9QWr_FCqPZ-68" value="B" style="rounded=0;whiteSpace=wrap;html=1;fontStyle=4" vertex="1" parent="1">
          <mxGeometry x="-120" y="1560" width="100" height="60" as="geometry" />
        </mxCell>
        <mxCell id="rPZLx46_eU9QWr_FCqPZ-71" value="F" style="rounded=0;whiteSpace=wrap;html=1;" vertex="1" parent="1">
          <mxGeometry x="-20" y="1560" width="100" height="60" as="geometry" />
        </mxCell>
        <mxCell id="rPZLx46_eU9QWr_FCqPZ-74" value="FD1" style="text;html=1;strokeColor=none;fillColor=none;align=center;verticalAlign=middle;whiteSpace=wrap;rounded=0;fontSize=16;fontStyle=1" vertex="1" parent="1">
          <mxGeometry x="-150" y="1390" width="90" height="80" as="geometry" />
        </mxCell>
        <mxCell id="rPZLx46_eU9QWr_FCqPZ-75" value="FD2" style="text;html=1;strokeColor=none;fillColor=none;align=center;verticalAlign=middle;whiteSpace=wrap;rounded=0;fontSize=16;fontStyle=1" vertex="1" parent="1">
          <mxGeometry x="350" y="1380" width="90" height="80" as="geometry" />
        </mxCell>
        <mxCell id="rPZLx46_eU9QWr_FCqPZ-76" value="FD3" style="text;html=1;strokeColor=none;fillColor=none;align=center;verticalAlign=middle;whiteSpace=wrap;rounded=0;fontSize=16;fontStyle=1" vertex="1" parent="1">
          <mxGeometry x="-160" y="1600" width="90" height="80" as="geometry" />
        </mxCell>
        <mxCell id="rPZLx46_eU9QWr_FCqPZ-77" value="FD4" style="text;html=1;strokeColor=none;fillColor=none;align=center;verticalAlign=middle;whiteSpace=wrap;rounded=0;fontSize=16;fontStyle=1" vertex="1" parent="1">
          <mxGeometry x="90" y="1644" width="90" height="80" as="geometry" />
        </mxCell>
        <mxCell id="rPZLx46_eU9QWr_FCqPZ-78" value="FD5" style="text;html=1;strokeColor=none;fillColor=none;align=center;verticalAlign=middle;whiteSpace=wrap;rounded=0;fontSize=16;fontStyle=1" vertex="1" parent="1">
          <mxGeometry x="510" y="1614" width="90" height="80" as="geometry" />
        </mxCell>
        <mxCell id="rPZLx46_eU9QWr_FCqPZ-79" value="F" style="rounded=0;whiteSpace=wrap;html=1;fontStyle=4" vertex="1" parent="1">
          <mxGeometry x="140" y="1560" width="100" height="60" as="geometry" />
        </mxCell>
        <mxCell id="rPZLx46_eU9QWr_FCqPZ-80" value="H" style="rounded=0;whiteSpace=wrap;html=1;" vertex="1" parent="1">
          <mxGeometry x="340" y="1560" width="100" height="60" as="geometry" />
        </mxCell>
        <mxCell id="rPZLx46_eU9QWr_FCqPZ-81" value="G" style="rounded=0;whiteSpace=wrap;html=1;" vertex="1" parent="1">
          <mxGeometry x="240" y="1560" width="100" height="60" as="geometry" />
        </mxCell>
        <mxCell id="rPZLx46_eU9QWr_FCqPZ-82" style="edgeStyle=orthogonalEdgeStyle;rounded=0;orthogonalLoop=1;jettySize=auto;html=1;exitX=0.25;exitY=1;exitDx=0;exitDy=0;entryX=0.5;entryY=1;entryDx=0;entryDy=0;" edge="1" parent="1">
          <mxGeometry relative="1" as="geometry">
            <Array as="points">
              <mxPoint x="167.5" y="1700" />
              <mxPoint x="292.5" y="1700" />
            </Array>
            <mxPoint x="167.5" y="1620" as="sourcePoint" />
            <mxPoint x="292.5" y="1620" as="targetPoint" />
          </mxGeometry>
        </mxCell>
        <mxCell id="rPZLx46_eU9QWr_FCqPZ-83" style="edgeStyle=orthogonalEdgeStyle;rounded=0;orthogonalLoop=1;jettySize=auto;html=1;exitX=0.25;exitY=1;exitDx=0;exitDy=0;entryX=0.5;entryY=1;entryDx=0;entryDy=0;" edge="1" parent="1">
          <mxGeometry relative="1" as="geometry">
            <Array as="points">
              <mxPoint x="167.5" y="1700" />
              <mxPoint x="392.5" y="1700" />
            </Array>
            <mxPoint x="167.5" y="1620" as="sourcePoint" />
            <mxPoint x="392.5" y="1620" as="targetPoint" />
          </mxGeometry>
        </mxCell>
        <mxCell id="rPZLx46_eU9QWr_FCqPZ-84" value="I" style="rounded=0;whiteSpace=wrap;html=1;" vertex="1" parent="1">
          <mxGeometry x="640" y="1560" width="100" height="60" as="geometry" />
        </mxCell>
        <mxCell id="rPZLx46_eU9QWr_FCqPZ-85" value="J" style="rounded=0;whiteSpace=wrap;html=1;" vertex="1" parent="1">
          <mxGeometry x="740" y="1560" width="100" height="60" as="geometry" />
        </mxCell>
        <mxCell id="rPZLx46_eU9QWr_FCqPZ-87" style="edgeStyle=orthogonalEdgeStyle;rounded=0;orthogonalLoop=1;jettySize=auto;html=1;exitX=0.5;exitY=1;exitDx=0;exitDy=0;entryX=0.5;entryY=1;entryDx=0;entryDy=0;" edge="1" parent="1" source="rPZLx46_eU9QWr_FCqPZ-86" target="rPZLx46_eU9QWr_FCqPZ-84">
          <mxGeometry relative="1" as="geometry">
            <Array as="points">
              <mxPoint x="590" y="1670" />
              <mxPoint x="690" y="1670" />
            </Array>
          </mxGeometry>
        </mxCell>
        <mxCell id="rPZLx46_eU9QWr_FCqPZ-88" style="edgeStyle=orthogonalEdgeStyle;rounded=0;orthogonalLoop=1;jettySize=auto;html=1;exitX=0.5;exitY=1;exitDx=0;exitDy=0;entryX=0.5;entryY=1;entryDx=0;entryDy=0;" edge="1" parent="1" source="rPZLx46_eU9QWr_FCqPZ-86" target="rPZLx46_eU9QWr_FCqPZ-85">
          <mxGeometry relative="1" as="geometry">
            <Array as="points">
              <mxPoint x="590" y="1670" />
              <mxPoint x="790" y="1670" />
            </Array>
          </mxGeometry>
        </mxCell>
        <mxCell id="rPZLx46_eU9QWr_FCqPZ-86" value="D" style="rounded=0;whiteSpace=wrap;html=1;fontStyle=4" vertex="1" parent="1">
          <mxGeometry x="540" y="1560" width="100" height="60" as="geometry" />
        </mxCell>
      </root>
    </mxGraphModel>
  </diagram>
</mxfile>
